# xmcd CD database file
#
# Track frame offsets:
#	150
#	16057
#	28938
#	57445
#	72776
#	87217
#	106322
#	125523
#	141937
#	159171
#	183683
#	201711
#	217362
#	227502
#	245530
#	265328
#
# Disc length: 3727 seconds
#
# Revision: 0
# Processed by: cddbd v1.5.2PL0 Copyright (c) Steve Scherf et al.
# Submitted via: CDex 1.93
#
DISCID=ef0e8d10
DTITLE=Origen - Two Steps From Heaven-Best 0f 1996-2013
DYEAR=2013
DGENRE=New Age
TTITLE0=Kyrie Eleison
TTITLE1=Dance of the Clouds
TTITLE2=Una Fortiva Lagrima
TTITLE3=Dance of the clouds part 2
TTITLE4=Lascia Ch'io Pianga
TTITLE5=Rendevous in the Pachelbels Fantasy
TTITLE6=Ave Maria
TTITLE7=Lacrimosa
TTITLE8=Tenders Passion
TTITLE9=Tears of the Past
TTITLE10=Hodu L'Adonai
TTITLE11=Bethoven's Solveig's Song
TTITLE12=Snake Tamer
TTITLE13=Heavenly Blue
TTITLE14=The Swan
TTITLE15=Piano Dreams
EXTD=YEAR: 2013
EXTT0=
EXTT1=
EXTT2=
EXTT3=
EXTT4=
EXTT5=
EXTT6=
EXTT7=
EXTT8=
EXTT9=
EXTT10=
EXTT11=
EXTT12=
EXTT13=
EXTT14=
EXTT15=
PLAYORDER=
